<svg xmlns="http://www.w3.org/2000/svg" width="125" height="16" viewBox="0 0 125 16" fill="none">
  <path d="M69.6427 6.15234L65.3912 9.67432L66.6419 15.3983L62.511 11.9403L58.114 15.2144L59.8128 9.55432L55.8467 5.85437L61.0271 5.81433L62.9738 0.253418L64.477 5.8894L69.6427 6.15234Z" fill="#FFC600"/>
  <path d="M42.1917 6.15234L37.9403 9.67432L39.1911 15.3983L35.0601 11.9403L30.6631 15.2144L32.3618 9.55432L28.3958 5.85437L33.5762 5.81433L35.5229 0.253418L37.0261 5.8894L42.1917 6.15234Z" fill="#FFC600"/>
  <path d="M14.7428 6.15234L10.4913 9.67432L11.742 15.3983L7.6111 11.9403L3.21407 15.2144L4.91286 9.55432L0.946777 5.85437L6.12724 5.81433L8.0739 0.253418L9.57709 5.8894L14.7428 6.15234Z" fill="#FFC600"/>
  <path d="M97.0921 6.15234L92.8407 9.67432L94.0914 15.3983L89.9605 11.9403L85.5635 15.2144L87.2623 9.55432L83.2961 5.85437L88.4766 5.81433L90.4233 0.253418L91.9265 5.8894L97.0921 6.15234Z" fill="#FFC600"/>
  <path d="M124.543 6.15234L120.292 9.67432L121.543 15.3983L117.412 11.9403L113.015 15.2144L114.713 9.55432L110.747 5.85437L115.928 5.81433L117.874 0.253418L119.378 5.8894L124.543 6.15234Z" fill="#C1C8CE"/>
</svg>